PathFileType	4	(X/Y/Z)	C:/Users/beibeiliu/ov580/test_trc/User3\sequence.18_training_dense_left.trc
DataRate	CameraRate	NumFrames	NumMarkers	Units	OrigDataRate	OrigDataStartFrame	OrigNumFrames
120	120	21	19	mm	120	66	261
Frame#	Time	ThumbCMC			ThumbMCP			ThumbIP			ThumbTip			IndexMCP			IndexPIP			IndexTip			MiddleMCP			MiddlePIP			MiddleTip			RingMCP			RingPIP			RingTip			PinkyMCP			PinkyPIP			PinkyTip			BackHand1			BackHand2			BackHand3	
		X0	Y0	Z0	X1	Y1	Z1	X2	Y2	Z2	X3	Y3	Z3	X4	Y4	Z4	X5	Y5	Z5	X6	Y6	Z6	X7	Y7	Z7	X8	Y8	Z8	X9	Y9	Z9	X10	Y10	Z10	X11	Y11	Z11	X12	Y12	Z12	X13	Y13	Z13	X14	Y14	Z14	X15	Y15	Z15	X16	Y16	Z16	X17	Y17	Z17	X18	Y18	Z18	
65	0.541667	-170.345	-29.2949	15.7578	-157.169	-17.6802	-10.4107	-146.963	-11.0818	-32.276	-142.17	-3.60644	-55.2328	-180.376	-19.6626	-54.5132	-173.701	-54.1902	-52.7682	-177.385	-49.1505	-18.8437	-196.326	-30.3089	-59.4764	-190.488	-61.7918	-50.7391	-195.705	-53.3961	-15.3249	-213.502	-36.6428	-55.5732	-204.313	-65.7364	-50.4898	-203.239	-63.7772	-17.9337	-235.583	-29.4678	-49.4653	-239.041	-35.4883	-69.8249	-232.623	-36.2438	-91.8419	-228.44	-14.7114	-0.214717	-232.46	-21.2015	25.2384	-199.28	-8.58953	13.7339	
66	0.55	-165.043	-31.4538	17.4767	-150.058	-21.7868	-4.65547	-140.799	-11.3451	-31.1345	-133.182	-5.0494	-52.6663	-174.902	-17.8874	-51.8092	-169.927	-52.3792	-53.7334	-173.582	-50.1543	-19.3956	-195.104	-27.8864	-58.3882	-185.014	-57.6596	-54.4663	-192.509	-49.7173	-13.1588	-212.425	-32.3587	-54.5136	-207.096	-62.6509	-52.4088	-201.139	-63.6252	-20.8408	-235.064	-23.4645	-43.6279	-232.766	-27.1662	-66.8114	-234.491	-31.8246	-90.2461	-223.005	-9.87356	2.5435	-226.876	-20.6414	26.9015	-192.793	-8.05371	17.0287	
67	0.558333	-161.172	-33.2276	19.3462	-146.994	-25.7731	-2.9495	-133.851	-13.406	-28.9212	-132.034	-7.53306	-52.2904	-173.661	-18.5282	-50.5071	-168.099	-50.9925	-53.8705	-170.995	-52.5439	-19.9816	-192.373	-25.3594	-54.9335	-186.615	-57.5212	-51.3888	-191.892	-51.7492	-14.1743	-209.461	-28.3663	-52.9895	-203.812	-59.9014	-50.4663	-199.756	-60.2212	-19.0407	-230.49	-19.0718	-47.0435	-229.773	-22.3783	-69.2895	-225.444	-27.0375	-92.4466	-219.77	-7.29339	3.79843	-221.422	-19.5616	27.5797	-188.005	-9.63461	17.9148	
68	0.566667	-158.609	-36.8885	21.0278	-142.678	-28.2565	-1.93048	-133.745	-17.985	-25.2992	-126.058	-10.9642	-49.5345	-168.11	-20.9546	-51.1139	-167.553	-54.6649	-50.4334	-173.807	-52.4678	-19.7	-188.98	-24.1738	-55.0873	-186.319	-55.7611	-52.8754	-187.175	-51.9702	-13.6999	-204.883	-24.9161	-50.8473	-202.342	-57.1292	-51.9676	-202.302	-61.6499	-19.9535	-228.736	-16.0998	-44.5957	-223.837	-18.1464	-67.1433	-219.357	-21.8378	-88.3975	-214.394	-5.8697	1.62661	-220.881	-17.2697	30.3024	-185.423	-11.1235	17.5498	
69	0.575	-160.089	-39.1301	21.7636	-142.597	-28.3666	-3.19731	-129.66	-18.2452	-26.6385	-122.81	-14.0215	-48.1299	-162.251	-22.0685	-50.5377	-165.765	-54.5606	-49.2781	-171.205	-51.7471	-18.7966	-186.416	-27.0733	-55.6189	-185.255	-56.7156	-52.0953	-186.786	-50.0726	-11.1197	-205.708	-26.6557	-51.0048	-203.523	-56.435	-52.8174	-197.836	-61.0078	-19.4275	-224.486	-13.9153	-44.4285	-219.811	-16.1914	-65.2388	-219.543	-18.7851	-85.8179	-213.345	-5.91888	6.20948	-218.39	-19.4837	34.09	-182.047	-11.9911	19.5856	
70	0.583333	-154.549	-39.0543	22.1841	-143.219	-30.6356	-1.83833	-127.485	-20.3298	-26.961	-121.38	-13.9122	-49.0006	-160.227	-21.6723	-50.5965	-159.632	-52.8932	-53.2419	-169.266	-50.7101	-16.8339	-180.557	-24.5102	-52.7542	-182.566	-56.2212	-51.2431	-181.386	-51.0969	-11.892	-203.396	-24.945	-50.5101	-198.025	-57.9995	-49.0712	-196.281	-57.9837	-14.6162	-221.775	-12.6643	-44.8034	-221.885	-14.9453	-63.65	-213.551	-17.4898	-88.3413	-210.949	-4.69503	3.8572	-210.407	-18.7634	33.3768	-178.529	-12.3933	20.6371	
71	0.591667	-153.054	-36.9309	20.5253	-137.72	-33.2285	0.763433	-127.64	-21.7515	-25.867	-117.829	-16.4175	-48.4505	-163.162	-21.3305	-49.3874	-161.869	-53.3244	-49.4201	-167.286	-48.9812	-16.3125	-179.488	-22.1884	-52.7836	-177.675	-55.306	-50.5105	-181.528	-48.4144	-9.24484	-197.782	-25.36	-51.1663	-197.857	-53.2757	-52.5463	-195.192	-57.0758	-14.6744	-219.451	-11.924	-38.9122	-215.673	-12.254	-63.457	-210.928	-11.984	-87.7764	-207.106	-3.3631	3.28614	-210.326	-15.6344	32.9133	-172.812	-10.5828	20.3166	
72	0.6	-151.257	-38.9049	26.1321	-136.478	-31.0494	2.37603	-121.213	-19.9963	-22.2381	-117.49	-13.3633	-44.7664	-158.272	-18.224	-47.696	-159.534	-49.9958	-50.1284	-162.635	-49.2733	-16.833	-177.869	-21.583	-53.1206	-178.812	-53.4427	-48.0358	-181.854	-47.8821	-11.0699	-195.997	-21.6723	-50.2103	-193.066	-52.859	-50.6302	-190.016	-55.5341	-15.6717	-212.405	-9.05484	-37.9271	-213.015	-8.11601	-61.7585	-211.272	-7.44925	-86.7134	-206.907	-1.70213	7.41242	-208.558	-15.228	36.8326	-174.812	-10.0984	23.8233	
73	0.608333	-152.189	-36.4573	29.4609	-137.137	-24.8116	4.98162	-120.179	-13.3814	-19.6801	-109.472	-10.118	-37.105	-150.661	-12.4831	-41.4121	-150.088	-46.1221	-45.7347	-162.367	-43.5851	-12.923	-169.186	-14.7175	-48.2744	-170.821	-46.1171	-50.5892	-179.093	-43.6958	-9.00811	-188.48	-14.2036	-47.1217	-185.776	-47.2202	-50.006	-187.927	-51.4366	-16.3642	-207.509	-3.24075	-40.6313	-208.162	-2.77635	-62.9357	-198.306	-4.10375	-86.2108	-200.642	0.613734	6.79395	-211.737	-12.5888	32.0433	-173.965	-7.1961	24.7359	
74	0.616667	-153.609	-32.4786	32.8495	-131.071	-21.433	14.0768	-115.165	-7.02348	-9.39301	-101.177	-2.23139	-23.3177	-144.593	-5.75298	-34.4266	-144.891	-37.3495	-41.4433	-154.198	-39.8161	-8.50262	-161.012	-7.20047	-45.2519	-161.851	-38.0754	-47.1101	-169.877	-41.8887	-8.90743	-180.013	-5.64429	-42.4099	-179.548	-39.6972	-50.5749	-182.47	-47.6682	-21.8883	-203.505	2.90858	-37.5212	-196.988	4.52888	-56.3796	-187.172	4.21097	-80.6862	-203.262	0.665202	10.6779	-207.955	-11.3194	37.18	-172.491	-5.22666	31.3662	
75	0.625	-149.538	-28.821	40.7303	-129.854	-16.7202	23.284	-109.326	-2.5	9.09653	-94.1198	5.07078	-5.1141	-137.819	4.82452	-24.6246	-136.417	-28.2211	-32.6537	-146.993	-34.2324	-2.52282	-151.381	4.14485	-34.8316	-151.027	-27.7655	-42.2146	-166.711	-33.6664	-3.95884	-172.641	2.24034	-39.0876	-164.668	-26.7168	-47.5498	-176.063	-39.9559	-15.0985	-193.019	9.30182	-30.6244	-186.814	15.5144	-52.8374	-170.922	16.1347	-73.4417	-194.469	8.35689	13.0622	-208.288	-11.3019	39.4501	-175.372	-2.96151	39.7277	
76	0.633333	-147.465	-24.3116	47.3292	-126.184	-13.7054	35.9094	-107.159	3.29676	21.1717	-86.7474	11.4567	13.7802	-125.476	12.2842	-8.13209	-121.296	-19.7149	-21.8029	-141.92	-28.9089	1.97036	-141.183	11.6249	-25.9396	-140.824	-19.4514	-34.4551	-157.721	-30.0399	-0.648277	-159.559	11.3885	-28.4914	-157.223	-19.7799	-41.2625	-168.505	-33.5927	-15.002	-183.647	19.1464	-27.6249	-173.53	23.9435	-45.2449	-155.538	27.434	-67.0051	-193.512	9.66319	19.8835	-209.654	-5.01129	36.4342	-173.096	3.23382	43.4035	
77	0.641667	-151.129	-24.4392	52.0401	-126.623	-10.2934	42.1192	-101.354	4.16178	34.1687	-84.4769	12.9411	26.9626	-122.722	17.0516	-0.787702	-115.799	-14.5458	-13.7778	-138.621	-24.9975	10.2563	-133.847	17.1948	-15.2147	-129.618	-12.8008	-25.3708	-154.565	-24.4708	3.10445	-152.707	14.5677	-23.9756	-149.33	-15.2071	-33.8312	-162.846	-29.6155	-6.80595	-172.994	23.9384	-22.4663	-160.794	28.5602	-40.3464	-146.072	30.1188	-55.2862	-191.768	16.5581	22.3711	-207.762	-5.2902	38.3422	-173.151	4.98895	48.0292	
78	0.65	-147.399	-23.7851	58.9052	-124.05	-7.03192	47.6287	-101.279	6.13901	40.5449	-83.8311	17.2421	32.2213	-118.032	17.8841	4.45193	-109.328	-10.3091	-6.96773	-132.284	-23.3915	13.5233	-134.659	20.544	-10.7728	-126.719	-13.7963	-18.6426	-149.058	-23.0332	10.0116	-149.662	18.15	-17.5631	-143.156	-12.1904	-30.8431	-156.055	-28.3755	-7.02779	-171.048	21.8654	-18.54	-153.84	28.895	-37.9158	-140.279	33.3188	-52.5048	-187.961	13.3764	25.6262	-204.306	-4.57387	38.5762	-170.015	3.02706	52.4744	
79	0.658333	-147.393	-21.7367	58.6392	-123.078	-7.72086	51.6148	-97.7577	7.80489	46.6534	-80.7644	18.2035	39.0615	-118.557	19.7266	8.00774	-111.288	-11.6814	-4.01576	-130.206	-23.3063	16.8395	-130.931	19.665	-9.37666	-120.98	-9.75507	-16.3526	-148.227	-21.6077	9.12285	-142.993	16.7642	-18.5052	-139.18	-11.5285	-27.8015	-151.674	-28.26	-3.30133	-167.109	22.3472	-18.6734	-154.66	27.1787	-35.1106	-137.627	30.7466	-49.8336	-188.807	12.6819	24.1497	-203.186	-3.22507	40.2636	-171.133	5.20356	53.7345	
80	0.666667	-147.953	-19.7978	58.0903	-122.81	-7.63189	54.4866	-101.69	11.8758	44.9657	-83.5746	20.6364	38.3857	-115.676	19.3776	4.44897	-110.024	-11.7442	-3.56012	-129.966	-20.6972	21.0876	-130.295	18.2063	-10.3652	-122.272	-13.4898	-16.6628	-146.051	-22.05	11.3774	-144.512	14.9246	-16.5494	-133.648	-11.5904	-25.8376	-149.645	-28.595	1.26514	-166.519	20.4409	-24.5366	-151.172	21.9391	-34.1425	-136.695	26.9382	-52.2545	-188.592	16.3375	19.3623	-201.468	-6.73145	39.8293	-171.583	4.48294	52.8994	
81	0.675	-145.547	-16.3307	60.4258	-123.57	-0.508602	50.6871	-102.753	18.1274	43.2052	-85.8032	27.2652	35.3748	-119.241	20.1591	2.11872	-109.114	-8.65984	-7.38636	-132.34	-19.2893	16.4196	-129.355	16.0027	-12.9205	-118.691	-15.0038	-15.4645	-148.75	-23.497	9.2031	-147.807	10.3784	-22.8503	-135.818	-16.3511	-30.2906	-149.014	-31.3476	1.39761	-164.318	14.0278	-26.0859	-151.621	17.244	-40.2753	-137.921	20.478	-60.5001	-191.378	10.2469	15.3182	-205.02	-9.52712	32.5369	-172.792	5.49039	47.1978	
82	0.683333	-148.037	-11.0799	56.576	-129.127	2.32593	46.6839	-107.614	25.0164	35.2537	-93.4733	37.5575	25.845	-121.664	21.8704	-4.39298	-108.305	-7.39352	-8.32327	-131.882	-18.4053	13.1944	-136.22	15.4717	-18.3613	-121.675	-17.5279	-17.2881	-149.191	-22.9293	9.20673	-149.399	6.89557	-28.9128	-136.712	-20.1815	-32.7598	-145.585	-32.6156	-1.68658	-171.903	5.53183	-30.1541	-157.332	10.1716	-47.7897	-142.757	11.9499	-64.4645	-190.859	9.20073	10.9274	-205.005	-11.1482	32.2879	-178.443	5.81582	43.4509	
83	0.691667	-152.736	-8.87663	53.3951	-131.579	11.3411	42.9356	-116.741	31.2444	28.0493	-100.964	45.9642	17.5756	-128.813	23.6785	-9.23908	-112.435	-5.15741	-11.2005	-132.787	-14.9706	13.2335	-139.341	11.6963	-27.8761	-124.703	-16.3395	-22.0279	-148.022	-22.9546	6.05864	-154.208	3.86155	-33.0215	-135.945	-21.502	-34.608	-147.97	-34.4033	-3.40505	-175.784	-1.90917	-37.9141	-162.717	0.605384	-54.7492	-144.1	6.47839	-69.5398	-197.052	1.59089	3.35214	-209.02	-18.0709	26.075	-181.927	7.514	37.2183	
84	0.7	-157.463	2.00596	47.2338	-139.565	20.7401	34.0008	-124.299	42.0344	20.4837	-112.455	52.4943	6.46717	-137.302	25.5918	-17.233	-118.081	-3.49847	-13.4501	-134.881	-10.0619	11.3897	-142.548	11.2438	-31.0091	-125.003	-13.7461	-25.4519	-148.724	-20.1054	7.52403	-157.323	-2.33901	-39.9748	-134.367	-24.0691	-32.0039	-146.334	-31.8137	-1.85969	-176.258	-6.90331	-42.4189	-164.684	-7.87846	-60.3309	-148.545	-1.30624	-74.4537	-203.699	-3.87617	-3.16363	-210.64	-22.9939	24.9852	-188.248	8.28644	31.1366	
85	0.708333	-163.8	6.51571	42.4939	-150.702	24.3576	22.5734	-138.714	42.4345	4.88744	-127.35	57.7014	-9.14275	-143.951	22.5376	-27.0308	-121.525	3.14918	-20.6807	-140.102	-7.21104	6.18395	-149.763	8.80934	-37.2805	-125.779	-11.9921	-23.1683	-149.312	-17.8308	4.65475	-159.338	-10.4646	-45.1906	-132.981	-23.702	-33.1909	-147.519	-32.6073	-1.99333	-178.143	-19.1837	-50.812	-164.603	-17.4143	-62.9075	-147.456	-13.9948	-83.5696	-205.897	-14.6327	-7.05781	-211.777	-24.9535	18.6643	-195.128	5.38535	25.7868	
